# xmcd CD database file
#
# Track frame offsets:
#	150
#	14462
#	42900
#	69136
#	100195
#
# Disc length: 1583 seconds
#
# Revision: 0
# Processed by: cddbd v1.5.2PL0 Copyright (c) Steve Scherf et al.
# Submitted via: CDex 1.70beta3
#
DISCID=34062d05
DTITLE=Buddy Rich and Max Roach - The Cool Jazz Collection 78
DYEAR=1900
DGENRE=Jazz
TTITLE0=Richcraft
TTITLE1=Cheek to Cheek
TTITLE2=Crackle Hut
TTITLE3=Body And Soul
TTITLE4=Sing, Sing, Sing
EXTD=
EXTT0=
EXTT1=
EXTT2=
EXTT3=
EXTT4=
PLAYORDER=
